<svg version="1.1" xmlns="http://www.w3.org/2000/svg" xmlns:xlink="http://www.w3.org/1999/xlink" width="775" height="775">
    <defs>
        <clipPath id="LWZExOeaTfVN">
            <path fill="none" stroke="none" d=" M 0 0 L 1512 0 L 1512 844 L 0 844 L 0 0 Z"/>
        </clipPath>
    </defs>
    <g transform="scale(1,1)" clip-path="url(#LWZExOeaTfVN)">
        <g>
            <rect fill="rgb(0,0,0)" stroke="none" x="0" y="0" width="1512" height="844" fill-opacity="1"/>
            <path fill="none" stroke="rgb(255,255,255)" paint-order="fill stroke markers" d=" M 769.6523437499972 391.2343750000041 C 769.6523437499972 600.9299909513836 599.6604597013768 770.9218750000045 389.96484374999784 770.9218750000045 C 180.26922779861886 770.9218750000045 10.277343749998522 600.9299909513836 10.277343749998522 391.2343750000041 C 10.277343749998522 181.53875904862448 180.26922779861886 11.546875000003638 389.96484374999784 11.546875000003638 C 599.6604597013768 11.546875000003638 769.6523437499972 181.53875904862448 769.6523437499972 391.2343750000041 Z" stroke-opacity="0.6980392156862745" stroke-linejoin="round" stroke-miterlimit="10" stroke-width="2.5" stroke-dasharray="2.5,3"/>
            <path fill="rgb(255,255,255)" stroke="none" paint-order="stroke fill markers" fill-rule="evenodd" d=" M 389.96484374999784 391.2343750000041 L 380.4780107694933 372.26070903899506 L 361.5043448084824 381.74754201949895 L 370.9911777889888 400.7212079805086 L 389.96484374999784 391.2343750000041" fill-opacity="0.09803921568627451"/>
            <path fill="none" stroke="rgb(255,255,255)" paint-order="fill stroke markers" d=" M 389.96484374999784 391.2343750000041 L 380.4780107694933 372.26070903899506 L 361.5043448084824 381.74754201949895 L 370.9911777889888 400.7212079805086 L 389.96484374999784 391.2343750000041" stroke-opacity="0.6" stroke-linecap="round" stroke-linejoin="round" stroke-miterlimit="10" stroke-width="2.5"/>
            <path fill="rgb(255,255,255)" stroke="none" paint-order="stroke fill markers" fill-rule="evenodd" d=" M 389.96484374999784 391.2343750000041 L 364.96484374999955 366.2343750000057 L 339.96484374999784 391.2343750000041 L 364.9648437499995 416.2343750000025 L 389.96484374999784 391.2343750000041" fill-opacity="0.09803921568627451"/>
            <path fill="none" stroke="rgb(255,255,255)" paint-order="fill stroke markers" d=" M 389.96484374999784 391.2343750000041 L 364.96484374999955 366.2343750000057 L 339.96484374999784 391.2343750000041 L 364.9648437499995 416.2343750000025 L 389.96484374999784 391.2343750000041" stroke-opacity="0.6" stroke-linecap="round" stroke-linejoin="round" stroke-miterlimit="10" stroke-width="2.5"/>
            <path fill="rgb(255,255,255)" stroke="none" paint-order="stroke fill markers" d=" M 345.2434842000022 301.79165590001253 C 335.6299933184868 306.5984013407702 326.8542974940554 312.9235650186372 319.2541656313433 320.52369688134934 L 389.96484374999784 391.2343750000041 Z" fill-opacity="0.09803921568627451"/>
            <path fill="none" stroke="rgb(255,255,255)" paint-order="fill stroke markers" d=" M 345.2434842000022 301.79165590001253 C 335.6299933184868 306.5984013407702 326.8542974940554 312.9235650186372 319.2541656313433 320.52369688134934 L 389.96484374999784 391.2343750000041 Z" stroke-opacity="0.6" stroke-linecap="round" stroke-linejoin="round" stroke-miterlimit="10" stroke-width="2.5"/>
            <path fill="none" stroke="rgb(255,255,255)" paint-order="fill stroke markers" d=" M 333.6864788511106 313.15231467685635 L 329.30115171613244 307.06799828803963" stroke-opacity="0.6" stroke-linecap="round" stroke-linejoin="round" stroke-miterlimit="10" stroke-width="2.5"/>
            <path fill="rgb(255,255,255)" stroke="none" paint-order="stroke fill markers" d=" M 153.1080143699148 430.6058481858365 C 142.91136748012295 427.2069658892392 132.23344732430246 425.4741779908879 121.48523776823106 425.4741779908879 L 121.48523776823106 525.4741779908879 Z" fill-opacity="0.09803921568627451"/>
            <path fill="none" stroke="rgb(255,255,255)" paint-order="fill stroke markers" d=" M 153.1080143699148 430.6058481858365 C 142.91136748012295 427.2069658892392 132.23344732430246 425.4741779908879 121.48523776823106 425.4741779908879 L 121.48523776823106 525.4741779908879 Z" stroke-opacity="0.6" stroke-linecap="round" stroke-linejoin="round" stroke-miterlimit="10" stroke-width="2.5"/>
            <path fill="none" stroke="rgb(255,255,255)" paint-order="fill stroke markers" d=" M 136.90277865765162 430.4670101932789 L 138.10414548020387 423.0638542609977" stroke-opacity="0.6" stroke-linecap="round" stroke-linejoin="round" stroke-miterlimit="10" stroke-width="2.5"/>
            <path fill="rgb(255,255,255)" stroke="none" paint-order="stroke fill markers" d=" M 121.48523776823106 193.7547690182365 C 140.31560854683866 193.7547690182365 158.3747363626654 186.27443335229185 171.68981923247577 172.95935048248137 L 121.48523776823106 122.75476901823652 Z" fill-opacity="0.09803921568627451"/>
            <path fill="none" stroke="rgb(255,255,255)" paint-order="fill stroke markers" d=" M 121.48523776823106 193.7547690182365 C 140.31560854683866 193.7547690182365 158.3747363626654 186.27443335229185 171.68981923247577 172.95935048248137 L 121.48523776823106 122.75476901823652 Z" stroke-opacity="0.6" stroke-linecap="round" stroke-linejoin="round" stroke-miterlimit="10" stroke-width="2.5"/>
            <path fill="none" stroke="rgb(255,255,255)" paint-order="fill stroke markers" d=" M 142.26663063994621 186.7133197390856 L 144.58425809775832 193.84624361129926" stroke-opacity="0.6" stroke-linecap="round" stroke-linejoin="round" stroke-miterlimit="10" stroke-width="2.5"/>
            <path fill="none" stroke="rgb(255,255,255)" paint-order="fill stroke markers" d=" M 152.0160988757155 182.67495776990424 L 155.4210276237621 189.357506701317" stroke-opacity="0.6" stroke-linecap="round" stroke-linejoin="round" stroke-miterlimit="10" stroke-width="2.5"/>
            <path fill="rgb(255,255,255)" stroke="none" paint-order="stroke fill markers" d=" M 232.00795830785168 193.90601637202508 C 250.87844237872858 200.19617772898405 271.47479742055816 198.7324398437568 289.2660604216112 189.83680834323025 L 255.72504075911445 122.75476901823652 Z" fill-opacity="0.09803921568627451"/>
            <path fill="none" stroke="rgb(255,255,255)" paint-order="fill stroke markers" d=" M 232.00795830785168 193.90601637202508 C 250.87844237872858 200.19617772898405 271.47479742055816 198.7324398437568 289.2660604216112 189.83680834323025 L 255.72504075911445 122.75476901823652 Z" stroke-opacity="0.6" stroke-linecap="round" stroke-linejoin="round" stroke-miterlimit="10" stroke-width="2.5"/>
            <path fill="none" stroke="rgb(255,255,255)" paint-order="fill stroke markers" d=" M 255.18416661010198 194.0027160423784 L 255.1272324891533 201.5024999396565" stroke-opacity="0.6" stroke-linecap="round" stroke-linejoin="round" stroke-miterlimit="10" stroke-width="2.5"/>
            <path fill="none" stroke="rgb(255,255,255)" paint-order="fill stroke markers" d=" M 266.33646014634184 193.21014694347636 L 267.4534516607868 200.62650251455423" stroke-opacity="0.6" stroke-linecap="round" stroke-linejoin="round" stroke-miterlimit="10" stroke-width="2.5"/>
            <path fill="none" stroke="rgb(255,255,255)" paint-order="fill stroke markers" d=" M 255.72504075911445 122.75476901823652 L 658.4444497317646 256.9945720091203" stroke-opacity="0.6980392156862745" stroke-linecap="round" stroke-linejoin="round" stroke-miterlimit="10" stroke-width="2.5"/>
            <path fill="none" stroke="rgb(255,255,255)" paint-order="fill stroke markers" d=" M 658.4444497317646 256.9945720091203 L 524.2046467408812 659.7139809817717" stroke-opacity="0.6980392156862745" stroke-linecap="round" stroke-linejoin="round" stroke-miterlimit="10" stroke-width="2.5"/>
            <path fill="none" stroke="rgb(255,255,255)" paint-order="fill stroke markers" d=" M 524.2046467408812 659.7139809817717 L 121.48523776823106 525.4741779908879" stroke-opacity="0.6980392156862745" stroke-linecap="round" stroke-linejoin="round" stroke-miterlimit="10" stroke-width="2.5"/>
            <path fill="none" stroke="rgb(255,255,255)" paint-order="fill stroke markers" d=" M 121.48523776823106 525.4741779908879 L 255.72504075911445 122.75476901823652" stroke-opacity="0.6980392156862745" stroke-linecap="round" stroke-linejoin="round" stroke-miterlimit="10" stroke-width="2.5"/>
            <path fill="none" stroke="rgb(255,255,255)" paint-order="fill stroke markers" d=" M 121.48523776823106 122.75476901823652 L 389.96484374999784 391.2343750000041" stroke-opacity="0.6980392156862745" stroke-linejoin="round" stroke-miterlimit="10" stroke-width="2.5" stroke-dasharray="2.5,3"/>
            <path fill="none" stroke="rgb(255,255,255)" paint-order="fill stroke markers" d=" M 389.96484374999784 391.2343750000041 L 121.48523776823106 659.7139809817717" stroke-opacity="0.6980392156862745" stroke-linejoin="round" stroke-miterlimit="10" stroke-width="2.5" stroke-dasharray="2.5,3"/>
            <path fill="none" stroke="rgb(255,255,255)" paint-order="fill stroke markers" d=" M 121.48523776823106 525.4741779908879 L 389.96484374999784 391.2343750000041" stroke-opacity="0.6980392156862745" stroke-linejoin="round" stroke-miterlimit="10" stroke-width="2.5" stroke-dasharray="2.5,3"/>
            <path fill="none" stroke="rgb(255,255,255)" paint-order="fill stroke markers" d=" M 389.96484374999784 391.2343750000041 L 255.72504075911445 122.75476901823652" stroke-opacity="0.6980392156862745" stroke-linejoin="round" stroke-miterlimit="10" stroke-width="2.5" stroke-dasharray="2.5,3"/>
            <path fill="none" stroke="rgb(255,255,255)" paint-order="fill stroke markers" d=" M 188.60513926367275 116.75476901823652 L 188.60513926367275 128.75476901823652" stroke-opacity="0.6980392156862745" stroke-linecap="round" stroke-linejoin="round" stroke-miterlimit="10" stroke-width="2.5"/>
            <path fill="none" stroke="rgb(255,255,255)" paint-order="fill stroke markers" d=" M 121.48523776823106 122.75476901823652 L 255.72504075911445 122.75476901823652" stroke-opacity="0.6980392156862745" stroke-linecap="round" stroke-linejoin="round" stroke-miterlimit="10" stroke-width="2.5"/>
            <path fill="none" stroke="rgb(255,255,255)" paint-order="fill stroke markers" d=" M 255.72504075911445 122.75476901823652 L 658.4444497317646 122.75476901823652" stroke-opacity="0.6980392156862745" stroke-linecap="round" stroke-linejoin="round" stroke-miterlimit="10" stroke-width="2.5"/>
            <path fill="none" stroke="rgb(255,255,255)" paint-order="fill stroke markers" d=" M 121.48523776823106 122.75476901823652 L 121.48523776823106 525.4741779908879" stroke-opacity="0.6980392156862745" stroke-linecap="round" stroke-linejoin="round" stroke-miterlimit="10" stroke-width="2.5"/>
            <path fill="none" stroke="rgb(255,255,255)" paint-order="fill stroke markers" d=" M 127.48523776823106 592.5940794863297 L 115.48523776823106 592.5940794863297" stroke-opacity="0.6980392156862745" stroke-linecap="round" stroke-linejoin="round" stroke-miterlimit="10" stroke-width="2.5"/>
            <path fill="none" stroke="rgb(255,255,255)" paint-order="fill stroke markers" d=" M 121.48523776823106 525.4741779908879 L 121.48523776823106 659.7139809817717" stroke-opacity="0.6980392156862745" stroke-linecap="round" stroke-linejoin="round" stroke-miterlimit="10" stroke-width="2.5"/>
            <path fill="none" stroke="rgb(255,255,255)" paint-order="fill stroke markers" d=" M 121.48523776823106 659.7139809817717 L 524.2046467408812 659.7139809817717" stroke-opacity="0.6980392156862745" stroke-linecap="round" stroke-linejoin="round" stroke-miterlimit="10" stroke-width="2.5"/>
            <path fill="none" stroke="rgb(255,255,255)" paint-order="fill stroke markers" d=" M 591.3245482363229 653.7139809817717 L 591.3245482363229 665.7139809817717" stroke-opacity="0.6980392156862745" stroke-linecap="round" stroke-linejoin="round" stroke-miterlimit="10" stroke-width="2.5"/>
            <path fill="none" stroke="rgb(255,255,255)" paint-order="fill stroke markers" d=" M 524.2046467408812 659.7139809817717 L 658.4444497317646 659.7139809817717" stroke-opacity="0.6980392156862745" stroke-linecap="round" stroke-linejoin="round" stroke-miterlimit="10" stroke-width="2.5"/>
            <path fill="none" stroke="rgb(255,255,255)" paint-order="fill stroke markers" d=" M 658.4444497317646 659.7139809817717 L 658.4444497317646 256.9945720091203" stroke-opacity="0.6980392156862745" stroke-linecap="round" stroke-linejoin="round" stroke-miterlimit="10" stroke-width="2.5"/>
            <path fill="none" stroke="rgb(255,255,255)" paint-order="fill stroke markers" d=" M 652.4444497317646 189.8746705136784 L 664.4444497317646 189.8746705136784" stroke-opacity="0.6980392156862745" stroke-linecap="round" stroke-linejoin="round" stroke-miterlimit="10" stroke-width="2.5"/>
            <path fill="none" stroke="rgb(255,255,255)" paint-order="fill stroke markers" d=" M 658.4444497317646 256.9945720091203 L 658.4444497317646 122.75476901823652" stroke-opacity="0.6980392156862745" stroke-linecap="round" stroke-linejoin="round" stroke-miterlimit="10" stroke-width="2.5"/>
            <path fill="rgb(255,255,255)" stroke="none" paint-order="stroke fill markers" d=" M 394.96484374999784 391.2343750000041 C 394.96484374999784 393.99579874915804 392.7262674991518 396.2343750000041 389.96484374999784 396.2343750000041 C 387.2034200008439 396.2343750000041 384.96484374999784 393.99579874915804 384.96484374999784 391.2343750000041 C 384.96484374999784 388.47295125085014 387.2034200008439 386.2343750000041 389.96484374999784 386.2343750000041 C 392.7262674991518 386.2343750000041 394.96484374999784 388.47295125085014 394.96484374999784 391.2343750000041 Z" fill-opacity="1"/>
            <path fill="none" stroke="rgb(0,0,0)" paint-order="fill stroke markers" d=" M 394.96484374999784 391.2343750000041 C 394.96484374999784 393.99579874915804 392.7262674991518 396.2343750000041 389.96484374999784 396.2343750000041 C 387.2034200008439 396.2343750000041 384.96484374999784 393.99579874915804 384.96484374999784 391.2343750000041 C 384.96484374999784 388.47295125085014 387.2034200008439 386.2343750000041 389.96484374999784 386.2343750000041 C 392.7262674991518 386.2343750000041 394.96484374999784 388.47295125085014 394.96484374999784 391.2343750000041 Z" stroke-opacity="1" stroke-linecap="round" stroke-linejoin="round" stroke-miterlimit="10"/>
            <text fill="rgb(255,255,255)" stroke="none" font-family="geogebra-sans-serif, sans-serif" font-size="32px" font-style="normal" font-weight="normal" text-decoration="normal" x="394" y="381" text-anchor="start" dominant-baseline="alphabetic" fill-opacity="1">O</text>
            <text fill="none" stroke="rgb(0,0,0)" font-family="geogebra-sans-serif, sans-serif" font-size="32px" font-style="normal" font-weight="normal" text-decoration="normal" x="394" y="381" text-anchor="start" dominant-baseline="alphabetic" stroke-opacity="1" stroke-linejoin="bevel" stroke-miterlimit="10" stroke-width="3">O</text>
            <text fill="rgb(255,255,255)" stroke="none" font-family="geogebra-sans-serif, sans-serif" font-size="32px" font-style="normal" font-weight="normal" text-decoration="normal" x="394" y="381" text-anchor="start" dominant-baseline="alphabetic" fill-opacity="1">O</text>
            <path fill="rgb(255,255,255)" stroke="none" paint-order="stroke fill markers" d=" M 663.4444497317646 122.75476901823652 C 663.4444497317646 125.51619276739048 661.2058734809186 127.75476901823652 658.4444497317646 127.75476901823652 C 655.6830259826106 127.75476901823652 653.4444497317646 125.51619276739048 653.4444497317646 122.75476901823652 C 653.4444497317646 119.99334526908255 655.6830259826106 117.75476901823652 658.4444497317646 117.75476901823652 C 661.2058734809186 117.75476901823652 663.4444497317646 119.99334526908255 663.4444497317646 122.75476901823652 Z" fill-opacity="1"/>
            <path fill="none" stroke="rgb(0,0,0)" paint-order="fill stroke markers" d=" M 663.4444497317646 122.75476901823652 C 663.4444497317646 125.51619276739048 661.2058734809186 127.75476901823652 658.4444497317646 127.75476901823652 C 655.6830259826106 127.75476901823652 653.4444497317646 125.51619276739048 653.4444497317646 122.75476901823652 C 653.4444497317646 119.99334526908255 655.6830259826106 117.75476901823652 658.4444497317646 117.75476901823652 C 661.2058734809186 117.75476901823652 663.4444497317646 119.99334526908255 663.4444497317646 122.75476901823652 Z" stroke-opacity="1" stroke-linecap="round" stroke-linejoin="round" stroke-miterlimit="10"/>
            <text fill="rgb(255,255,255)" stroke="none" font-family="geogebra-sans-serif, sans-serif" font-size="32px" font-style="normal" font-weight="normal" text-decoration="normal" x="662" y="113" text-anchor="start" dominant-baseline="alphabetic" fill-opacity="1">B</text>
            <text fill="none" stroke="rgb(0,0,0)" font-family="geogebra-sans-serif, sans-serif" font-size="32px" font-style="normal" font-weight="normal" text-decoration="normal" x="662" y="113" text-anchor="start" dominant-baseline="alphabetic" stroke-opacity="1" stroke-linejoin="bevel" stroke-miterlimit="10" stroke-width="3">B</text>
            <text fill="rgb(255,255,255)" stroke="none" font-family="geogebra-sans-serif, sans-serif" font-size="32px" font-style="normal" font-weight="normal" text-decoration="normal" x="662" y="113" text-anchor="start" dominant-baseline="alphabetic" fill-opacity="1">B</text>
            <path fill="rgb(255,255,255)" stroke="none" paint-order="stroke fill markers" d=" M 126.48523776823106 122.75476901823652 C 126.48523776823106 125.51619276739048 124.24666151738502 127.75476901823652 121.48523776823106 127.75476901823652 C 118.7238140190771 127.75476901823652 116.48523776823106 125.51619276739048 116.48523776823106 122.75476901823652 C 116.48523776823106 119.99334526908255 118.7238140190771 117.75476901823652 121.48523776823106 117.75476901823652 C 124.24666151738502 117.75476901823652 126.48523776823106 119.99334526908255 126.48523776823106 122.75476901823652 Z" fill-opacity="1"/>
            <path fill="none" stroke="rgb(0,0,0)" paint-order="fill stroke markers" d=" M 126.48523776823106 122.75476901823652 C 126.48523776823106 125.51619276739048 124.24666151738502 127.75476901823652 121.48523776823106 127.75476901823652 C 118.7238140190771 127.75476901823652 116.48523776823106 125.51619276739048 116.48523776823106 122.75476901823652 C 116.48523776823106 119.99334526908255 118.7238140190771 117.75476901823652 121.48523776823106 117.75476901823652 C 124.24666151738502 117.75476901823652 126.48523776823106 119.99334526908255 126.48523776823106 122.75476901823652 Z" stroke-opacity="1" stroke-linecap="round" stroke-linejoin="round" stroke-miterlimit="10"/>
            <text fill="rgb(255,255,255)" stroke="none" font-family="geogebra-sans-serif, sans-serif" font-size="32px" font-style="normal" font-weight="normal" text-decoration="normal" x="97" y="114" text-anchor="start" dominant-baseline="alphabetic" fill-opacity="1">A</text>
            <text fill="none" stroke="rgb(0,0,0)" font-family="geogebra-sans-serif, sans-serif" font-size="32px" font-style="normal" font-weight="normal" text-decoration="normal" x="97" y="114" text-anchor="start" dominant-baseline="alphabetic" stroke-opacity="1" stroke-linejoin="bevel" stroke-miterlimit="10" stroke-width="3">A</text>
            <text fill="rgb(255,255,255)" stroke="none" font-family="geogebra-sans-serif, sans-serif" font-size="32px" font-style="normal" font-weight="normal" text-decoration="normal" x="97" y="114" text-anchor="start" dominant-baseline="alphabetic" fill-opacity="1">A</text>
            <path fill="rgb(255,255,255)" stroke="none" paint-order="stroke fill markers" d=" M 663.4444497317646 659.7139809817717 C 663.4444497317646 662.4754047309257 661.2058734809186 664.7139809817717 658.4444497317646 664.7139809817717 C 655.6830259826106 664.7139809817717 653.4444497317646 662.4754047309257 653.4444497317646 659.7139809817717 C 653.4444497317646 656.9525572326177 655.6830259826106 654.7139809817717 658.4444497317646 654.7139809817717 C 661.2058734809186 654.7139809817717 663.4444497317646 656.9525572326177 663.4444497317646 659.7139809817717 Z" fill-opacity="1"/>
            <path fill="none" stroke="rgb(0,0,0)" paint-order="fill stroke markers" d=" M 663.4444497317646 659.7139809817717 C 663.4444497317646 662.4754047309257 661.2058734809186 664.7139809817717 658.4444497317646 664.7139809817717 C 655.6830259826106 664.7139809817717 653.4444497317646 662.4754047309257 653.4444497317646 659.7139809817717 C 653.4444497317646 656.9525572326177 655.6830259826106 654.7139809817717 658.4444497317646 654.7139809817717 C 661.2058734809186 654.7139809817717 663.4444497317646 656.9525572326177 663.4444497317646 659.7139809817717 Z" stroke-opacity="1" stroke-linecap="round" stroke-linejoin="round" stroke-miterlimit="10"/>
            <text fill="rgb(255,255,255)" stroke="none" font-family="geogebra-sans-serif, sans-serif" font-size="32px" font-style="normal" font-weight="normal" text-decoration="normal" x="662" y="650" text-anchor="start" dominant-baseline="alphabetic" fill-opacity="1">C</text>
            <text fill="none" stroke="rgb(0,0,0)" font-family="geogebra-sans-serif, sans-serif" font-size="32px" font-style="normal" font-weight="normal" text-decoration="normal" x="662" y="650" text-anchor="start" dominant-baseline="alphabetic" stroke-opacity="1" stroke-linejoin="bevel" stroke-miterlimit="10" stroke-width="3">C</text>
            <text fill="rgb(255,255,255)" stroke="none" font-family="geogebra-sans-serif, sans-serif" font-size="32px" font-style="normal" font-weight="normal" text-decoration="normal" x="662" y="650" text-anchor="start" dominant-baseline="alphabetic" fill-opacity="1">C</text>
            <path fill="rgb(255,255,255)" stroke="none" paint-order="stroke fill markers" d=" M 126.48523776823106 659.7139809817717 C 126.48523776823106 662.4754047309257 124.24666151738502 664.7139809817717 121.48523776823106 664.7139809817717 C 118.7238140190771 664.7139809817717 116.48523776823106 662.4754047309257 116.48523776823106 659.7139809817717 C 116.48523776823106 656.9525572326177 118.7238140190771 654.7139809817717 121.48523776823106 654.7139809817717 C 124.24666151738502 654.7139809817717 126.48523776823106 656.9525572326177 126.48523776823106 659.7139809817717 Z" fill-opacity="1"/>
            <path fill="none" stroke="rgb(0,0,0)" paint-order="fill stroke markers" d=" M 126.48523776823106 659.7139809817717 C 126.48523776823106 662.4754047309257 124.24666151738502 664.7139809817717 121.48523776823106 664.7139809817717 C 118.7238140190771 664.7139809817717 116.48523776823106 662.4754047309257 116.48523776823106 659.7139809817717 C 116.48523776823106 656.9525572326177 118.7238140190771 654.7139809817717 121.48523776823106 654.7139809817717 C 124.24666151738502 654.7139809817717 126.48523776823106 656.9525572326177 126.48523776823106 659.7139809817717 Z" stroke-opacity="1" stroke-linecap="round" stroke-linejoin="round" stroke-miterlimit="10"/>
            <text fill="rgb(255,255,255)" stroke="none" font-family="geogebra-sans-serif, sans-serif" font-size="32px" font-style="normal" font-weight="normal" text-decoration="normal" x="92" y="646" text-anchor="start" dominant-baseline="alphabetic" fill-opacity="1">D</text>
            <text fill="none" stroke="rgb(0,0,0)" font-family="geogebra-sans-serif, sans-serif" font-size="32px" font-style="normal" font-weight="normal" text-decoration="normal" x="92" y="646" text-anchor="start" dominant-baseline="alphabetic" stroke-opacity="1" stroke-linejoin="bevel" stroke-miterlimit="10" stroke-width="3">D</text>
            <text fill="rgb(255,255,255)" stroke="none" font-family="geogebra-sans-serif, sans-serif" font-size="32px" font-style="normal" font-weight="normal" text-decoration="normal" x="92" y="646" text-anchor="start" dominant-baseline="alphabetic" fill-opacity="1">D</text>
            <path fill="rgb(255,255,255)" stroke="none" paint-order="stroke fill markers" d=" M 260.72504075911445 122.75476901823652 C 260.72504075911445 125.51619276739048 258.4864645082684 127.75476901823652 255.72504075911445 127.75476901823652 C 252.96361700996047 127.75476901823652 250.72504075911445 125.51619276739048 250.72504075911445 122.75476901823652 C 250.72504075911445 119.99334526908255 252.96361700996047 117.75476901823652 255.72504075911445 117.75476901823652 C 258.4864645082684 117.75476901823652 260.72504075911445 119.99334526908255 260.72504075911445 122.75476901823652 Z" fill-opacity="1"/>
            <path fill="none" stroke="rgb(0,0,0)" paint-order="fill stroke markers" d=" M 260.72504075911445 122.75476901823652 C 260.72504075911445 125.51619276739048 258.4864645082684 127.75476901823652 255.72504075911445 127.75476901823652 C 252.96361700996047 127.75476901823652 250.72504075911445 125.51619276739048 250.72504075911445 122.75476901823652 C 250.72504075911445 119.99334526908255 252.96361700996047 117.75476901823652 255.72504075911445 117.75476901823652 C 258.4864645082684 117.75476901823652 260.72504075911445 119.99334526908255 260.72504075911445 122.75476901823652 Z" stroke-opacity="1" stroke-linecap="round" stroke-linejoin="round" stroke-miterlimit="10"/>
            <text fill="rgb(255,255,255)" stroke="none" font-family="geogebra-sans-serif, sans-serif" font-size="32px" font-style="normal" font-weight="normal" text-decoration="normal" x="245" y="109" text-anchor="start" dominant-baseline="alphabetic" fill-opacity="1">A'</text>
            <text fill="none" stroke="rgb(0,0,0)" font-family="geogebra-sans-serif, sans-serif" font-size="32px" font-style="normal" font-weight="normal" text-decoration="normal" x="245" y="109" text-anchor="start" dominant-baseline="alphabetic" stroke-opacity="1" stroke-linejoin="bevel" stroke-miterlimit="10" stroke-width="3">A'</text>
            <text fill="rgb(255,255,255)" stroke="none" font-family="geogebra-sans-serif, sans-serif" font-size="32px" font-style="normal" font-weight="normal" text-decoration="normal" x="245" y="109" text-anchor="start" dominant-baseline="alphabetic" fill-opacity="1">A'</text>
            <path fill="rgb(255,255,255)" stroke="none" paint-order="stroke fill markers" d=" M 663.4444497317646 256.9945720091203 C 663.4444497317646 259.75599575827425 661.2058734809186 261.9945720091203 658.4444497317646 261.9945720091203 C 655.6830259826106 261.9945720091203 653.4444497317646 259.75599575827425 653.4444497317646 256.9945720091203 C 653.4444497317646 254.23314825996633 655.6830259826106 251.9945720091203 658.4444497317646 251.9945720091203 C 661.2058734809186 251.9945720091203 663.4444497317646 254.23314825996633 663.4444497317646 256.9945720091203 Z" fill-opacity="1"/>
            <path fill="none" stroke="rgb(0,0,0)" paint-order="fill stroke markers" d=" M 663.4444497317646 256.9945720091203 C 663.4444497317646 259.75599575827425 661.2058734809186 261.9945720091203 658.4444497317646 261.9945720091203 C 655.6830259826106 261.9945720091203 653.4444497317646 259.75599575827425 653.4444497317646 256.9945720091203 C 653.4444497317646 254.23314825996633 655.6830259826106 251.9945720091203 658.4444497317646 251.9945720091203 C 661.2058734809186 251.9945720091203 663.4444497317646 254.23314825996633 663.4444497317646 256.9945720091203 Z" stroke-opacity="1" stroke-linecap="round" stroke-linejoin="round" stroke-miterlimit="10"/>
            <text fill="rgb(255,255,255)" stroke="none" font-family="geogebra-sans-serif, sans-serif" font-size="32px" font-style="normal" font-weight="normal" text-decoration="normal" x="667" y="255" text-anchor="start" dominant-baseline="alphabetic" fill-opacity="1">B'</text>
            <text fill="none" stroke="rgb(0,0,0)" font-family="geogebra-sans-serif, sans-serif" font-size="32px" font-style="normal" font-weight="normal" text-decoration="normal" x="667" y="255" text-anchor="start" dominant-baseline="alphabetic" stroke-opacity="1" stroke-linejoin="bevel" stroke-miterlimit="10" stroke-width="3">B'</text>
            <text fill="rgb(255,255,255)" stroke="none" font-family="geogebra-sans-serif, sans-serif" font-size="32px" font-style="normal" font-weight="normal" text-decoration="normal" x="667" y="255" text-anchor="start" dominant-baseline="alphabetic" fill-opacity="1">B'</text>
            <path fill="rgb(255,255,255)" stroke="none" paint-order="stroke fill markers" d=" M 529.2046467408812 659.7139809817717 C 529.2046467408812 662.4754047309257 526.9660704900352 664.7139809817717 524.2046467408812 664.7139809817717 C 521.4432229917272 664.7139809817717 519.2046467408812 662.4754047309257 519.2046467408812 659.7139809817717 C 519.2046467408812 656.9525572326177 521.4432229917272 654.7139809817717 524.2046467408812 654.7139809817717 C 526.9660704900352 654.7139809817717 529.2046467408812 656.9525572326177 529.2046467408812 659.7139809817717 Z" fill-opacity="1"/>
            <path fill="none" stroke="rgb(0,0,0)" paint-order="fill stroke markers" d=" M 529.2046467408812 659.7139809817717 C 529.2046467408812 662.4754047309257 526.9660704900352 664.7139809817717 524.2046467408812 664.7139809817717 C 521.4432229917272 664.7139809817717 519.2046467408812 662.4754047309257 519.2046467408812 659.7139809817717 C 519.2046467408812 656.9525572326177 521.4432229917272 654.7139809817717 524.2046467408812 654.7139809817717 C 526.9660704900352 654.7139809817717 529.2046467408812 656.9525572326177 529.2046467408812 659.7139809817717 Z" stroke-opacity="1" stroke-linecap="round" stroke-linejoin="round" stroke-miterlimit="10"/>
            <text fill="rgb(255,255,255)" stroke="none" font-family="geogebra-sans-serif, sans-serif" font-size="32px" font-style="normal" font-weight="normal" text-decoration="normal" x="528" y="650" text-anchor="start" dominant-baseline="alphabetic" fill-opacity="1">C'</text>
            <text fill="none" stroke="rgb(0,0,0)" font-family="geogebra-sans-serif, sans-serif" font-size="32px" font-style="normal" font-weight="normal" text-decoration="normal" x="528" y="650" text-anchor="start" dominant-baseline="alphabetic" stroke-opacity="1" stroke-linejoin="bevel" stroke-miterlimit="10" stroke-width="3">C'</text>
            <text fill="rgb(255,255,255)" stroke="none" font-family="geogebra-sans-serif, sans-serif" font-size="32px" font-style="normal" font-weight="normal" text-decoration="normal" x="528" y="650" text-anchor="start" dominant-baseline="alphabetic" fill-opacity="1">C'</text>
            <path fill="rgb(255,255,255)" stroke="none" paint-order="stroke fill markers" d=" M 126.48523776823106 525.4741779908879 C 126.48523776823106 528.235601740042 124.24666151738502 530.4741779908879 121.48523776823106 530.4741779908879 C 118.7238140190771 530.4741779908879 116.48523776823106 528.235601740042 116.48523776823106 525.4741779908879 C 116.48523776823106 522.7127542417339 118.7238140190771 520.4741779908879 121.48523776823106 520.4741779908879 C 124.24666151738502 520.4741779908879 126.48523776823106 522.7127542417339 126.48523776823106 525.4741779908879 Z" fill-opacity="1"/>
            <path fill="none" stroke="rgb(0,0,0)" paint-order="fill stroke markers" d=" M 126.48523776823106 525.4741779908879 C 126.48523776823106 528.235601740042 124.24666151738502 530.4741779908879 121.48523776823106 530.4741779908879 C 118.7238140190771 530.4741779908879 116.48523776823106 528.235601740042 116.48523776823106 525.4741779908879 C 116.48523776823106 522.7127542417339 118.7238140190771 520.4741779908879 121.48523776823106 520.4741779908879 C 124.24666151738502 520.4741779908879 126.48523776823106 522.7127542417339 126.48523776823106 525.4741779908879 Z" stroke-opacity="1" stroke-linecap="round" stroke-linejoin="round" stroke-miterlimit="10"/>
            <text fill="rgb(255,255,255)" stroke="none" font-family="geogebra-sans-serif, sans-serif" font-size="32px" font-style="normal" font-weight="normal" text-decoration="normal" x="85" y="520" text-anchor="start" dominant-baseline="alphabetic" fill-opacity="1">D'</text>
            <text fill="none" stroke="rgb(0,0,0)" font-family="geogebra-sans-serif, sans-serif" font-size="32px" font-style="normal" font-weight="normal" text-decoration="normal" x="85" y="520" text-anchor="start" dominant-baseline="alphabetic" stroke-opacity="1" stroke-linejoin="bevel" stroke-miterlimit="10" stroke-width="3">D'</text>
            <text fill="rgb(255,255,255)" stroke="none" font-family="geogebra-sans-serif, sans-serif" font-size="32px" font-style="normal" font-weight="normal" text-decoration="normal" x="85" y="520" text-anchor="start" dominant-baseline="alphabetic" fill-opacity="1">D'</text>
            <path fill="rgb(255,255,255)" stroke="none" paint-order="stroke fill markers" d=" M 227.16509001139363 223.43462126139934 C 227.16509001139363 226.19604501055332 224.9265137605476 228.43462126139934 222.16509001139363 228.43462126139934 C 219.40366626223965 228.43462126139934 217.16509001139363 226.19604501055332 217.16509001139363 223.43462126139934 C 217.16509001139363 220.67319751224537 219.40366626223965 218.43462126139934 222.16509001139363 218.43462126139934 C 224.9265137605476 218.43462126139934 227.16509001139363 220.67319751224537 227.16509001139363 223.43462126139934 Z" fill-opacity="1"/>
            <path fill="none" stroke="rgb(0,0,0)" paint-order="fill stroke markers" d=" M 227.16509001139363 223.43462126139934 C 227.16509001139363 226.19604501055332 224.9265137605476 228.43462126139934 222.16509001139363 228.43462126139934 C 219.40366626223965 228.43462126139934 217.16509001139363 226.19604501055332 217.16509001139363 223.43462126139934 C 217.16509001139363 220.67319751224537 219.40366626223965 218.43462126139934 222.16509001139363 218.43462126139934 C 224.9265137605476 218.43462126139934 227.16509001139363 220.67319751224537 227.16509001139363 223.43462126139934 Z" stroke-opacity="1" stroke-linecap="round" stroke-linejoin="round" stroke-miterlimit="10"/>
            <text fill="rgb(255,255,255)" stroke="none" font-family="geogebra-sans-serif, sans-serif" font-size="32px" font-style="normal" font-weight="normal" text-decoration="normal" x="182" y="249" text-anchor="start" dominant-baseline="alphabetic" fill-opacity="1">M</text>
            <text fill="none" stroke="rgb(0,0,0)" font-family="geogebra-sans-serif, sans-serif" font-size="32px" font-style="normal" font-weight="normal" text-decoration="normal" x="182" y="249" text-anchor="start" dominant-baseline="alphabetic" stroke-opacity="1" stroke-linejoin="bevel" stroke-miterlimit="10" stroke-width="3">M</text>
            <text fill="rgb(255,255,255)" stroke="none" font-family="geogebra-sans-serif, sans-serif" font-size="32px" font-style="normal" font-weight="normal" text-decoration="normal" x="182" y="249" text-anchor="start" dominant-baseline="alphabetic" fill-opacity="1">M</text>
            <g transform="scale(35,35)">
                <g transform="translate(8.8,8.494)">
                    <path fill="rgb(255,255,255)" stroke="none" paint-order="stroke fill markers" d=" M 0.455 -0.5 L 0.455 -0.5 Q 0.455 -0.34700000000000003 0.377 -0.19 Q 0.307 -0.05 0.222 -0.005 Q 0.191 0.011 0.162 0.011 Q 0.08 0.011 0.052000000000000005 -0.101 Q 0.042 -0.14300000000000002 0.042 -0.194 Q 0.042 -0.35100000000000003 0.122 -0.509 Q 0.192 -0.646 0.277 -0.6900000000000001 Q 0.307 -0.705 0.335 -0.705 Q 0.422 -0.705 0.447 -0.578 Q 0.455 -0.54 0.455 -0.5 M 0.148 -0.363 L 0.148 -0.363 L 0.357 -0.363 Q 0.389 -0.495 0.389 -0.562 Q 0.389 -0.675 0.342 -0.682 Q 0.338 -0.683 0.334 -0.683 Q 0.28300000000000003 -0.683 0.225 -0.578 Q 0.187 -0.511 0.149 -0.368 Q 0.149 -0.365 0.148 -0.363 M 0.34800000000000003 -0.331 L 0.14 -0.331 Q 0.108 -0.21 0.108 -0.133 Q 0.108 -0.013000000000000001 0.162 -0.011 Q 0.218 -0.011 0.278 -0.128 Q 0.317 -0.202 0.34800000000000003 -0.331 Z"/>
                </g>
            </g>
            <g transform="scale(35,35)">
                <g transform="translate(5.142857142857143,3.0595714285714286)">
                    <path fill="rgb(255,255,255)" stroke="none" paint-order="stroke fill markers" d=" M 0.373 -0.378 Q 0.378 -0.41200000000000003 0.404 -0.42 Q 0.40900000000000003 -0.422 0.41500000000000004 -0.422 Q 0.441 -0.422 0.444 -0.395 Q 0.444 -0.389 0.437 -0.361 L 0.401 -0.221 Q 0.386 -0.158 0.379 -0.131 Q 0.366 -0.079 0.366 -0.057 Q 0.366 -0.011 0.396 -0.011 Q 0.434 -0.011 0.46 -0.091 Q 0.465 -0.108 0.47200000000000003 -0.135 Q 0.48 -0.152 0.486 -0.153 Q 0.498 -0.153 0.498 -0.14300000000000002 Q 0.498 -0.128 0.48 -0.073 Q 0.47400000000000003 -0.056 0.468 -0.044 Q 0.44 0.011 0.394 0.011 Q 0.338 0.011 0.313 -0.037 Q 0.306 -0.049 0.303 -0.064 Q 0.24 0.011 0.17300000000000001 0.011 Q 0.098 0.011 0.062 -0.057 Q 0.04 -0.097 0.04 -0.149 Q 0.04 -0.257 0.115 -0.34900000000000003 Q 0.185 -0.433 0.267 -0.441 Q 0.274 -0.442 0.281 -0.442 Q 0.342 -0.442 0.373 -0.378 M 0.308 -0.11900000000000001 L 0.308 -0.11900000000000001 L 0.358 -0.315 Q 0.361 -0.33 0.361 -0.332 Q 0.361 -0.353 0.343 -0.383 Q 0.321 -0.42 0.28200000000000003 -0.42 Q 0.23 -0.42 0.183 -0.352 Q 0.17400000000000002 -0.339 0.166 -0.324 Q 0.137 -0.266 0.117 -0.159 Q 0.111 -0.125 0.111 -0.105 Q 0.111 -0.037 0.149 -0.017 Q 0.16 -0.011 0.17500000000000002 -0.011 Q 0.231 -0.011 0.28800000000000003 -0.082 Q 0.302 -0.098 0.307 -0.115 L 0.307 -0.116 Q 0.308 -0.11800000000000001 0.308 -0.11900000000000001 Z"/>
                </g>
            </g>
            <g transform="scale(35,35)">
                <g transform="translate(11.971428571428572,3.244)">
                    <path fill="rgb(255,255,255)" stroke="none" paint-order="stroke fill markers" d=" M 0.294 -0.64 L 0.294 -0.079 Q 0.294 -0.049 0.306 -0.041 Q 0.323 -0.031 0.387 -0.031 L 0.419 -0.031 L 0.419 0 Q 0.384 -0.003 0.257 -0.003 Q 0.13 -0.003 0.095 0 L 0.095 -0.031 L 0.127 -0.031 Q 0.20400000000000001 -0.031 0.215 -0.049 L 0.216 -0.05 Q 0.22 -0.058 0.22 -0.079 L 0.22 -0.597 Q 0.168 -0.5710000000000001 0.089 -0.5710000000000001 L 0.089 -0.602 Q 0.209 -0.602 0.271 -0.666 Q 0.29 -0.666 0.293 -0.659 L 0.293 -0.659 L 0.293 -0.658 Q 0.294 -0.655 0.294 -0.64 Z"/>
                </g>
                <g transform="translate(12.693650793650793,3.244)">
                    <path fill="rgb(255,255,255)" stroke="none" paint-order="stroke fill markers" d=" M 0.661 -0.23 L 0.116 -0.23 Q 0.084 -0.23 0.083 -0.25 Q 0.083 -0.27 0.116 -0.27 L 0.661 -0.27 Q 0.6930000000000001 -0.27 0.6940000000000001 -0.25 Q 0.6940000000000001 -0.23 0.661 -0.23 Z"/>
                </g>
                <g transform="translate(13.693873015873015,3.244)">
                    <path fill="rgb(255,255,255)" stroke="none" paint-order="stroke fill markers" d=" M 0.373 -0.378 Q 0.378 -0.41200000000000003 0.404 -0.42 Q 0.40900000000000003 -0.422 0.41500000000000004 -0.422 Q 0.441 -0.422 0.444 -0.395 Q 0.444 -0.389 0.437 -0.361 L 0.401 -0.221 Q 0.386 -0.158 0.379 -0.131 Q 0.366 -0.079 0.366 -0.057 Q 0.366 -0.011 0.396 -0.011 Q 0.434 -0.011 0.46 -0.091 Q 0.465 -0.108 0.47200000000000003 -0.135 Q 0.48 -0.152 0.486 -0.153 Q 0.498 -0.153 0.498 -0.14300000000000002 Q 0.498 -0.128 0.48 -0.073 Q 0.47400000000000003 -0.056 0.468 -0.044 Q 0.44 0.011 0.394 0.011 Q 0.338 0.011 0.313 -0.037 Q 0.306 -0.049 0.303 -0.064 Q 0.24 0.011 0.17300000000000001 0.011 Q 0.098 0.011 0.062 -0.057 Q 0.04 -0.097 0.04 -0.149 Q 0.04 -0.257 0.115 -0.34900000000000003 Q 0.185 -0.433 0.267 -0.441 Q 0.274 -0.442 0.281 -0.442 Q 0.342 -0.442 0.373 -0.378 M 0.308 -0.11900000000000001 L 0.308 -0.11900000000000001 L 0.358 -0.315 Q 0.361 -0.33 0.361 -0.332 Q 0.361 -0.353 0.343 -0.383 Q 0.321 -0.42 0.28200000000000003 -0.42 Q 0.23 -0.42 0.183 -0.352 Q 0.17400000000000002 -0.339 0.166 -0.324 Q 0.137 -0.266 0.117 -0.159 Q 0.111 -0.125 0.111 -0.105 Q 0.111 -0.037 0.149 -0.017 Q 0.16 -0.011 0.17500000000000002 -0.011 Q 0.231 -0.011 0.28800000000000003 -0.082 Q 0.302 -0.098 0.307 -0.115 L 0.307 -0.116 Q 0.308 -0.11800000000000001 0.308 -0.11900000000000001 Z"/>
                </g>
            </g>
            <g transform="scale(35,35)">
                <g transform="translate(13.885714285714286,5.345285714285715)">
                    <path fill="rgb(255,255,255)" stroke="none" paint-order="stroke fill markers" d=" M 0.396 -0.38 L 0.396 -0.38 Q 0.368 -0.41600000000000004 0.31 -0.42 Q 0.245 -0.42 0.192 -0.354 Q 0.179 -0.338 0.169 -0.32 Q 0.129 -0.247 0.117 -0.148 Q 0.115 -0.132 0.115 -0.12 Q 0.115 -0.038 0.171 -0.017 Q 0.185 -0.011 0.20500000000000002 -0.011 Q 0.295 -0.011 0.367 -0.07100000000000001 Q 0.388 -0.088 0.405 -0.11 Q 0.41200000000000003 -0.12 0.418 -0.12 Q 0.427 -0.12 0.43 -0.107 Q 0.43 -0.096 0.396 -0.064 Q 0.313 0.011 0.203 0.011 Q 0.108 0.011 0.065 -0.065 Q 0.041 -0.106 0.041 -0.158 Q 0.041 -0.26 0.11900000000000001 -0.34700000000000003 Q 0.196 -0.433 0.291 -0.441 Q 0.3 -0.442 0.309 -0.442 Q 0.386 -0.442 0.41600000000000004 -0.395 Q 0.427 -0.377 0.427 -0.356 Q 0.427 -0.312 0.392 -0.296 Q 0.382 -0.292 0.371 -0.292 Q 0.341 -0.292 0.335 -0.318 Q 0.334 -0.322 0.334 -0.327 Q 0.334 -0.34900000000000003 0.352 -0.366 Q 0.366 -0.38 0.396 -0.38 Z"/>
                </g>
            </g>
        </g>
    </g>
</svg>